<svg width="174" height="56" viewBox="0 0 174 56" fill="none" xmlns="http://www.w3.org/2000/svg">
<path d="M18.4489 14.5425H16.0781V16.9072H18.4489V14.5425Z" fill="#EAEAEA"/>
<path d="M20.4103 18.165H15.7441V22.8192H20.4103V18.165Z" fill="#EAEAEA"/>
<path d="M21.7674 24.1196H15.668V30.2033H21.7674V24.1196Z" fill="#EAEAEA"/>
<path d="M46.3276 26.4198C46.3276 32.267 43.515 37.4478 39.1505 40.6938L34.8939 35.9752C37.8574 33.2451 39.7109 29.3326 39.7109 24.9902C39.7109 16.7138 32.9864 10.0174 24.6994 10.0174C22.9536 10.0174 21.2833 10.3184 19.7207 10.8558C22.2963 9.40478 25.2813 8.58789 28.4496 8.58789C38.3207 8.58789 46.3276 16.5741 46.3276 26.4198Z" fill="#EAEAEA"/>
<path d="M18.4489 14.5425H16.0781V16.9072H18.4489V14.5425Z" fill="#EAEAEA"/>
<path d="M20.4103 18.165H15.7441V22.8192H20.4103V18.165Z" fill="#EAEAEA"/>
<path d="M21.7674 24.1196H15.668V30.2033H21.7674V24.1196Z" fill="#EAEAEA"/>
<path d="M29.9168 36.4053C29.8946 36.4163 29.8835 36.4163 29.8724 36.4274H29.8613C29.8724 36.4274 29.8946 36.4163 29.9168 36.4053Z" fill="#EAEAEA"/>
<path d="M14.0623 20.8413H7.96289V26.925H14.0623V20.8413Z" fill="#EAEAEA"/>
<path d="M21.7674 24.1196H15.668V30.2033H21.7674V24.1196Z" fill="#EAEAEA"/>
<path d="M20.4103 18.165H15.7441V22.8192H20.4103V18.165Z" fill="#EAEAEA"/>
<path d="M14.2238 14.6499H9.56836V19.2933H14.2238V14.6499Z" fill="#EAEAEA"/>
<path d="M18.4489 14.5425H16.0781V16.9072H18.4489V14.5425Z" fill="#EAEAEA"/>
<path d="M41.3367 44.714L40.8194 45.1654C38.9336 46.7884 36.0886 46.5842 34.4614 44.714L33.4484 43.5424C31.8643 44.0045 30.1939 44.2518 28.4589 44.2518C20.6245 44.2518 13.9647 39.2214 11.5508 32.2241C14.1048 36.846 19.0404 39.9738 24.698 39.9738C26.4222 39.9738 28.0818 39.6836 29.6228 39.1462L28.2542 37.5769L28.7714 37.1255C28.8469 37.061 28.9223 36.9965 29.0085 36.9427C29.0624 36.8997 29.1055 36.8675 29.1594 36.8353C29.2133 36.803 29.2672 36.76 29.321 36.7278C29.4288 36.6633 29.5366 36.5988 29.6443 36.545C29.6982 36.5235 29.7413 36.4913 29.7952 36.4698C29.7952 36.4698 29.806 36.4698 29.806 36.4591C29.8168 36.4591 29.8275 36.4483 29.8275 36.4483C29.8275 36.4483 29.8383 36.4483 29.8383 36.4376H29.8491C29.8599 36.4268 29.8814 36.4161 29.8922 36.4161C29.9676 36.3838 30.0431 36.3516 30.1293 36.3193C30.1832 36.2978 30.2478 36.2763 30.3017 36.2548C30.3664 36.2333 30.4202 36.2118 30.4849 36.2011C30.528 36.1903 30.5711 36.1796 30.6142 36.1688C30.625 36.1688 30.6358 36.1581 30.6465 36.1581C30.6573 36.1581 30.6681 36.1473 30.6789 36.1473C30.7435 36.1366 30.7974 36.1258 30.8621 36.1044C30.8836 36.0936 30.9052 36.0936 30.9267 36.0936C30.9375 36.0936 30.9483 36.0936 30.9483 36.0936C30.9806 36.0829 31.0237 36.0829 31.056 36.0721C31.0776 36.0614 31.0991 36.0614 31.1099 36.0614C31.1207 36.0614 31.1315 36.0614 31.1423 36.0614C31.1638 36.0506 31.1961 36.0506 31.2177 36.0506C31.25 36.0399 31.2823 36.0399 31.3147 36.0399C31.3362 36.0399 31.3578 36.0291 31.3793 36.0291C31.3901 36.0291 31.4117 36.0291 31.4224 36.0291C31.5086 36.0184 31.6056 36.0184 31.6918 36.0184C32.1768 36.0184 32.6725 36.0936 33.1359 36.2548C33.4592 36.3623 33.7609 36.502 34.0519 36.6848C34.4398 36.9212 34.7954 37.2222 35.108 37.5769L38.3085 41.2637L41.0781 44.456L41.3367 44.714Z" fill="#EAEAEA"/>
<path d="M70.8918 21.0466V40.7886H67.6134V37.8705C66.989 38.8792 66.1124 39.6718 64.9836 40.2482C63.8788 40.8006 62.6539 41.0768 61.309 41.0768C59.7719 41.0768 58.3909 40.7646 57.166 40.1401C55.9412 39.4917 54.9685 38.531 54.248 37.2581C53.5515 35.9852 53.2032 34.4361 53.2032 32.6108V21.0466H56.4455V32.1785C56.4455 34.1239 56.9379 35.6249 57.9226 36.6817C58.9073 37.7144 60.2522 38.2308 61.9574 38.2308C63.7107 38.2308 65.0916 37.6904 66.1004 36.6096C67.1091 35.5288 67.6134 33.9557 67.6134 31.8903V21.0466H70.8918ZM94.4398 30.161C94.4398 30.7855 94.4038 31.446 94.3317 32.1424H78.5525C78.6726 34.0878 79.3331 35.6129 80.5339 36.7177C81.7588 37.7985 83.2358 38.3388 84.9651 38.3388C86.3821 38.3388 87.5589 38.0146 88.4956 37.3661C89.4563 36.6937 90.1287 35.805 90.513 34.7003H94.0435C93.5151 36.5976 92.4584 38.1467 90.8733 39.3476C89.2881 40.5244 87.3187 41.1128 84.9651 41.1128C83.0917 41.1128 81.4105 40.6925 79.9215 39.8519C78.4565 39.0113 77.3036 37.8225 76.463 36.2854C75.6224 34.7243 75.2021 32.923 75.2021 30.8816C75.2021 28.8401 75.6104 27.0508 76.427 25.5137C77.2436 23.9767 78.3844 22.7998 79.8494 21.9832C81.3385 21.1426 83.0437 20.7224 84.9651 20.7224C86.8384 20.7224 88.4956 21.1306 89.9366 21.9472C91.3776 22.7638 92.4824 23.8926 93.2509 25.3336C94.0435 26.7506 94.4398 28.3598 94.4398 30.161ZM91.0534 29.4766C91.0534 28.2277 90.7772 27.1589 90.2248 26.2703C89.6724 25.3576 88.9159 24.6732 87.9552 24.2168C87.0185 23.7365 85.9738 23.4963 84.821 23.4963C83.1638 23.4963 81.7468 24.0247 80.57 25.0814C79.4171 26.1382 78.7567 27.6032 78.5885 29.4766H91.0534ZM102.045 14.1297V40.7886H98.7671V14.1297H102.045ZM125.645 30.161C125.645 30.7855 125.609 31.446 125.537 32.1424H109.758C109.878 34.0878 110.539 35.6129 111.74 36.7177C112.965 37.7985 114.442 38.3388 116.171 38.3388C117.588 38.3388 118.765 38.0146 119.701 37.3661C120.662 36.6937 121.334 35.805 121.719 34.7003H125.249C124.721 36.5976 123.664 38.1467 122.079 39.3476C120.494 40.5244 118.524 41.1128 116.171 41.1128C114.297 41.1128 112.616 40.6925 111.127 39.8519C109.662 39.0113 108.509 37.8225 107.669 36.2854C106.828 34.7243 106.408 32.923 106.408 30.8816C106.408 28.8401 106.816 27.0508 107.633 25.5137C108.449 23.9767 109.59 22.7998 111.055 21.9832C112.544 21.1426 114.249 20.7224 116.171 20.7224C118.044 20.7224 119.701 21.1306 121.142 21.9472C122.583 22.7638 123.688 23.8926 124.457 25.3336C125.249 26.7506 125.645 28.3598 125.645 30.161ZM122.259 29.4766C122.259 28.2277 121.983 27.1589 121.431 26.2703C120.878 25.3576 120.122 24.6732 119.161 24.2168C118.224 23.7365 117.179 23.4963 116.027 23.4963C114.369 23.4963 112.952 24.0247 111.776 25.0814C110.623 26.1382 109.962 27.6032 109.794 29.4766H122.259ZM128.748 30.8455C128.748 28.8281 129.156 27.0628 129.973 25.5498C130.789 24.0127 131.906 22.8238 133.323 21.9832C134.764 21.1426 136.361 20.7224 138.115 20.7224C139.844 20.7224 141.345 21.0946 142.618 21.8391C143.891 22.5837 144.839 23.5203 145.464 24.6491V21.0466H148.778V40.7886H145.464V37.114C144.815 38.2668 143.843 39.2275 142.546 39.996C141.273 40.7405 139.784 41.1128 138.079 41.1128C136.325 41.1128 134.74 40.6805 133.323 39.8159C131.906 38.9513 130.789 37.7384 129.973 36.1773C129.156 34.6162 128.748 32.8389 128.748 30.8455ZM145.464 30.8816C145.464 29.3925 145.164 28.0956 144.563 26.9908C143.963 25.886 143.146 25.0454 142.113 24.469C141.105 23.8686 139.988 23.5684 138.763 23.5684C137.538 23.5684 136.421 23.8566 135.413 24.433C134.404 25.0094 133.599 25.85 132.999 26.9548C132.398 28.0596 132.098 29.3565 132.098 30.8455C132.098 32.3586 132.398 33.6795 132.999 34.8083C133.599 35.9131 134.404 36.7657 135.413 37.3661C136.421 37.9426 137.538 38.2308 138.763 38.2308C139.988 38.2308 141.105 37.9426 142.113 37.3661C143.146 36.7657 143.963 35.9131 144.563 34.8083C145.164 33.6795 145.464 32.3706 145.464 30.8816ZM153.381 38.1587C156.432 35.709 158.821 33.7036 160.551 32.1424C162.28 30.5573 163.733 28.9122 164.91 27.2069C166.111 25.4777 166.711 23.7845 166.711 22.1273C166.711 20.5662 166.327 19.3414 165.558 18.4527C164.814 17.5401 163.601 17.0838 161.92 17.0838C160.286 17.0838 159.013 17.6001 158.101 18.6329C157.212 19.6416 156.732 20.9985 156.66 22.7038H153.49C153.586 20.0138 154.402 17.9364 155.939 16.4713C157.476 15.0063 159.458 14.2738 161.884 14.2738C164.357 14.2738 166.315 14.9583 167.756 16.3272C169.221 17.6962 169.953 19.5815 169.953 21.9832C169.953 23.9767 169.353 25.922 168.152 27.8194C166.975 29.6927 165.63 31.3499 164.117 32.7909C162.604 34.2079 160.671 35.8651 158.317 37.7624H170.71V40.5004H153.381V38.1587Z" fill="#EAEAEA"/>
</svg>
