<svg width="144" height="32" viewBox="0 0 144 32" fill="none" xmlns="http://www.w3.org/2000/svg">
<circle cx="16" cy="16" r="16" fill="#B9D6D2"/>
<path d="M19.9987 7.6665H17.4987C16.3936 7.6665 15.3338 8.10549 14.5524 8.88689C13.771 9.66829 13.332 10.7281 13.332 11.8332V14.3332H10.832V17.6665H13.332V24.3332H16.6654V17.6665H19.1654L19.9987 14.3332H16.6654V11.8332C16.6654 11.6122 16.7532 11.4002 16.9094 11.2439C17.0657 11.0876 17.2777 10.9998 17.4987 10.9998H19.9987V7.6665Z" fill="#2C8579"/>
<circle cx="72" cy="16" r="16" fill="#B9D6D2"/>
<path d="M81.1654 8.49959C80.3674 9.06249 79.4838 9.49302 78.5487 9.77459C78.0468 9.19752 77.3798 8.7885 76.6379 8.60286C75.896 8.41722 75.1149 8.46392 74.4004 8.73664C73.6859 9.00935 73.0724 9.49493 72.6428 10.1277C72.2133 10.7605 71.9884 11.5099 71.9987 12.2746V13.1079C70.5342 13.1459 69.0831 12.8211 67.7745 12.1625C66.466 11.5038 65.3406 10.5318 64.4987 9.33292C64.4987 9.33292 61.1654 16.8329 68.6654 20.1663C66.9491 21.3312 64.9047 21.9154 62.832 21.8329C70.332 25.9996 79.4987 21.8329 79.4987 12.2496C79.4979 12.0175 79.4756 11.7859 79.432 11.5579C80.2825 10.7192 80.8827 9.66018 81.1654 8.49959V8.49959Z" fill="#2C8579"/>
<circle cx="128" cy="16" r="16" fill="#B9D6D2"/>
<path d="M136.783 11.3502C136.684 10.9547 136.482 10.5923 136.198 10.2997C135.914 10.007 135.558 9.79448 135.166 9.6835C133.733 9.3335 127.999 9.3335 127.999 9.3335C127.999 9.3335 122.266 9.3335 120.833 9.71683C120.44 9.82782 120.084 10.0404 119.8 10.333C119.516 10.6256 119.315 10.988 119.216 11.3835C118.954 12.8381 118.825 14.3138 118.833 15.7918C118.823 17.281 118.951 18.7679 119.216 20.2335C119.325 20.6167 119.531 20.9653 119.814 21.2456C120.097 21.5258 120.448 21.7283 120.833 21.8335C122.266 22.2168 127.999 22.2168 127.999 22.2168C127.999 22.2168 133.733 22.2168 135.166 21.8335C135.558 21.7225 135.914 21.51 136.198 21.2173C136.482 20.9247 136.684 20.5623 136.783 20.1668C137.043 18.7232 137.171 17.2588 137.166 15.7918C137.175 14.3026 137.047 12.8157 136.783 11.3502V11.3502Z" fill="#2C8579"/>
<path d="M126.125 18.5164L130.917 15.7914L126.125 13.0664V18.5164Z" stroke="#F8F8F8" stroke-width="1.66667" stroke-linecap="round" stroke-linejoin="round"/>
</svg>
